<svg width="24" height="24" viewBox="0 0 24 24" fill="none" xmlns="http://www.w3.org/2000/svg">
<g id="twitter (1) 1" clip-path="url(#clip0_13_2107)">
<g id="Layer 2">
<g id="Color">
<g id="04.Twitter">
<path id="Background" d="M12 24C18.6274 24 24 18.6274 24 12C24 5.37258 18.6274 0 12 0C5.37258 0 0 5.37258 0 12C0 18.6274 5.37258 24 12 24Z" fill="#F85559"/>
<path id="Icon" d="M19.7733 7.17948C19.1886 7.43484 18.5701 7.60448 17.937 7.68317C18.6044 7.28738 19.1033 6.66035 19.3391 5.92106C18.7144 6.29185 18.0308 6.55299 17.318 6.69317C16.8812 6.22603 16.314 5.90115 15.69 5.76078C15.0661 5.6204 14.4143 5.67103 13.8196 5.90608C13.2248 6.14113 12.7145 6.54972 12.3551 7.0787C11.9957 7.60768 11.8038 8.23258 11.8043 8.87211C11.8021 9.11622 11.827 9.35982 11.8785 9.59843C10.6106 9.53615 9.37006 9.20709 8.23795 8.63274C7.10584 8.05839 6.10764 7.25167 5.30853 6.26527C4.89778 6.96697 4.77053 7.79905 4.95278 8.59143C5.13503 9.38382 5.61302 10.0767 6.28906 10.5284C5.78446 10.5148 5.29056 10.38 4.84906 10.1353V10.17C4.85048 10.9055 5.10506 11.6181 5.57002 12.188C6.03498 12.7579 6.68196 13.1504 7.40222 13.2995C7.12965 13.3711 6.84876 13.4061 6.56695 13.4037C6.36404 13.4074 6.1613 13.3894 5.96222 13.35C6.16856 13.9826 6.56583 14.5357 7.09938 14.9332C7.63292 15.3307 8.27654 15.5532 8.94169 15.57C7.81452 16.451 6.42496 16.9296 4.99432 16.9295C4.73941 16.9317 4.48464 16.9169 4.23169 16.8853C5.69043 17.8258 7.39078 18.3227 9.12643 18.3158C14.9922 18.3158 18.1991 13.4574 18.1991 9.24632C18.1991 9.1058 18.1991 8.97001 18.188 8.83422C18.8125 8.38349 19.3497 7.82276 19.7733 7.17948Z" fill="white"/>
</g>
</g>
</g>
</g>
<defs>
<clipPath id="clip0_13_2107">
<rect width="24" height="24" fill="white"/>
</clipPath>
</defs>
</svg>
